<svg width="2000" height="694" viewBox="0 0 2000 694" fill="none" xmlns="http://www.w3.org/2000/svg">
<path d="M0 0L97.0727 24.5141L165.245 41.3667H187.479L243.789 49.0281H310.481L375.693 55.1485C375.693 55.1485 520.93 36.7657 638.011 27.5743C755.093 18.3828 881.066 7.66138 881.066 7.66138C881.066 7.66138 912.192 -4.59031 978.884 9.19137C978.884 9.19137 1112.27 12.2516 1310.85 27.5743L1599.86 9.19137L1909.6 39.8368L2000 0V694L1839.94 648.043L1619.12 629.66L1094.49 686.339L675.068 649.573L406.819 674.087L85.2103 646.513L0 694V0Z" fill="#C9E2C9"/>
</svg>
