<svg width="151" height="531" viewBox="0 0 151 531" fill="none" xmlns="http://www.w3.org/2000/svg">
<path d="M148.349 -1.15887e-07L142.931 2.54443C142.931 2.54443 146.232 11.3852 143.333 17.1231C141.391 20.9677 132.517 27.346 134.214 36.4283C135.656 44.1414 141.713 50 141.713 50L147.699 46.6772C147.699 46.6772 137.145 37.6078 143.72 28.2344C148.922 20.8017 154.39 16.6422 148.349 -1.15887e-07Z" fill="#3A8071"/>
<path d="M83.3488 377L77.9309 379.595C77.9309 379.595 81.2315 388.613 78.3333 394.466C76.391 398.387 67.5172 404.893 69.2145 414.157C70.6559 422.022 76.7126 428 76.7126 428L82.6992 424.611C82.6992 424.611 72.1455 415.36 78.7205 405.799C83.9219 398.218 89.3901 393.975 83.3488 377Z" fill="#F9E8C8"/>
<path d="M147.124 481L141.48 484.043C141.48 484.043 145.641 492.392 142.876 498.123C141.029 501.968 132.59 508.346 134.204 517.428C135.573 525.139 141.335 531 141.335 531L147.026 527.677C147.026 527.677 136.989 518.608 143.242 509.234C148.201 501.802 153.379 497.235 147.124 481Z" fill="#13C081"/>
<path d="M147.124 229L141.48 232.043C141.48 232.043 145.641 240.392 142.876 246.123C141.029 249.968 132.59 256.346 134.204 265.428C135.573 273.139 141.335 279 141.335 279L147.026 275.677C147.026 275.677 136.989 266.608 143.242 257.234C148.201 249.802 153.379 245.235 147.124 229Z" fill="#742794"/>
<path d="M83.3466 118L77.9295 120.595C77.9295 120.595 81.2296 129.613 78.3341 135.466C76.3899 139.387 67.5174 145.893 69.2145 155.157C70.6557 163.022 76.7114 169 76.7114 169L82.6971 165.611C82.6971 165.611 72.145 156.36 78.719 146.799C83.9327 139.218 89.387 134.973 83.3466 118Z" fill="#BC5D5C"/>
<path d="M13.1238 229L7.48036 232.043C7.48036 232.043 11.6406 240.392 8.87613 246.123C7.02896 249.968 -1.4102 256.346 0.203991 265.428C1.57273 273.139 7.33474 279 7.33474 279L13.026 275.677C13.026 275.677 2.98932 266.608 9.24224 257.234C14.2013 249.802 19.3788 245.235 13.1238 229Z" fill="#102436"/>
</svg>
