<svg width="33" height="33" viewBox="0 0 33 33" fill="none" xmlns="http://www.w3.org/2000/svg">
<path d="M29.634 1.0849C25.1618 -0.361633 20.3486 -0.361633 15.8764 1.0849C13.6935 1.89346 12.492 3.11091 12.492 4.50292V10.3926C11.6436 10.3191 10.9236 10.2869 10.2449 10.2869C7.9066 10.2471 5.57914 10.6139 3.36604 11.3711C1.19692 12.2027 0 13.4247 0 14.8075V27.9926C0 29.3709 1.19692 30.5975 3.36604 31.4107C7.83842 32.8563 12.6513 32.8563 17.1237 31.4107C18.9076 30.7307 20.0266 29.8073 20.3751 28.7277C21.16 28.8039 21.9483 28.8407 22.7368 28.838C25.0752 28.8786 27.4028 28.5118 29.6157 27.7538C31.7894 26.9406 32.9863 25.7232 32.9863 24.3311V4.48455C33.0184 3.11091 31.8077 1.89806 29.634 1.0849ZM20.4944 23.8579C21.1914 23.9269 21.9297 23.959 22.7414 23.959C25.0795 24.0012 27.4071 23.6359 29.6203 22.8794C30.0753 22.7113 30.5169 22.5086 30.941 22.273V24.3633C30.941 25.2224 27.8272 26.7982 22.746 26.7982C21.9957 26.8008 21.2457 26.7655 20.4989 26.6925L20.4944 23.8579ZM22.7414 21.8917C21.9911 21.8943 21.2411 21.859 20.4944 21.786V18.956C21.1914 19.0249 21.9297 19.0571 22.7414 19.0571C25.0798 19.0978 27.4074 18.7309 29.6203 17.9729C30.0769 17.8087 30.5188 17.6058 30.941 17.3665V19.443C30.9364 20.3067 27.8226 21.8963 22.7414 21.8963V21.8917ZM22.7414 16.9989C21.9912 17.0029 21.2412 16.9692 20.4944 16.8979V14.8075C20.4935 14.5529 20.4517 14.3 20.3705 14.0587C21.1868 14.1322 21.9664 14.1689 22.7414 14.1689C25.0798 14.2096 27.4074 13.8428 29.6203 13.0847C30.0753 12.9167 30.5169 12.714 30.941 12.4783V14.5549C30.9364 15.3864 28.0427 17.0035 22.7414 17.0035V16.9989ZM30.9364 7.31912V9.64834C30.9364 10.4799 28.0427 12.097 22.7414 12.097C17.6557 12.097 14.5464 10.512 14.5464 9.64834V7.31912C14.969 7.55477 15.409 7.75751 15.8626 7.92554C18.076 8.6811 20.4034 9.04639 22.7414 9.00516C25.0795 9.04732 27.4071 8.68201 29.6203 7.92554C30.0738 7.75728 30.5138 7.55455 30.9364 7.31912ZM22.7414 6.95618C17.6557 6.95618 14.5464 5.36662 14.5464 4.50292C14.5464 3.63923 17.6557 2.03588 22.7414 2.03588C27.8272 2.03588 30.9364 3.62085 30.9364 4.48455C30.9364 5.34824 27.8226 6.95618 22.7414 6.95618ZM18.4445 26.5317V28.0294C18.4445 28.8931 15.3306 30.4781 10.2495 30.4781C5.1683 30.4781 2.05448 28.9115 2.05448 28.0294V26.5317C2.47703 26.7674 2.91704 26.9701 3.37063 27.1381C7.84301 28.5837 12.6559 28.5837 17.1283 27.1381C17.5815 26.9692 18.0215 26.7665 18.4445 26.5317ZM10.2495 26.155C5.1683 26.155 2.05448 24.5654 2.05448 23.7017V22.2224C2.47703 22.4581 2.91704 22.6608 3.37063 22.8289C7.84301 24.2745 12.6559 24.2745 17.1283 22.8289C17.5819 22.6608 18.0219 22.4581 18.4445 22.2224V23.7155C18.4445 24.5471 15.5508 26.155 10.2495 26.155ZM10.2495 21.8457C5.1683 21.8457 2.05448 20.2562 2.05448 19.3925V17.6237C2.47703 17.8594 2.91704 18.0621 3.37063 18.2301C7.84374 19.6711 12.6552 19.6711 17.1283 18.2301C17.5819 18.0621 18.0219 17.8594 18.4445 17.6237V19.4062C18.4445 20.2378 15.5508 21.8595 10.2495 21.8595V21.8457ZM10.2495 17.2516C5.1683 17.2516 2.05448 15.6666 2.05448 14.8029C2.05448 13.9392 5.1683 12.3359 10.2495 12.3359C11.2805 12.3288 12.3107 12.3994 13.3312 12.5472C13.3599 12.5533 13.3896 12.5533 13.4183 12.5472C16.6972 13.0066 18.4628 14.1506 18.4628 14.7846C18.4445 15.6391 15.5508 17.2562 10.2495 17.2562V17.2516Z" fill="#13C081"/>
</svg>
