<svg width="36" height="36" viewBox="0 0 36 36" fill="none" xmlns="http://www.w3.org/2000/svg">
<path d="M17.2585 17.8597L13.1475 13.7363C13.0533 13.6399 12.9405 13.5637 12.816 13.5121C12.6915 13.4605 12.558 13.4346 12.4233 13.4361C12.2903 13.436 12.1586 13.4625 12.0359 13.514C11.9132 13.5656 11.8021 13.6411 11.709 13.7363L6.28425 19.1607C6.18756 19.2541 6.11065 19.3661 6.05812 19.4899C6.00559 19.6137 5.97852 19.7468 5.97852 19.8814C5.97852 20.0159 6.00559 20.149 6.05812 20.2729C6.11065 20.3967 6.18756 20.5086 6.28425 20.6019C6.37758 20.7003 6.48991 20.7787 6.61443 20.8323C6.73895 20.8858 6.87304 20.9135 7.00855 20.9135C7.14405 20.9135 7.27815 20.8858 7.40266 20.8323C7.52718 20.7787 7.63952 20.7003 7.73284 20.6019L12.4233 15.9031L16.4643 19.9464C16.6426 20.1248 16.8802 20.2311 17.1318 20.2449C17.3834 20.2588 17.6313 20.1792 17.828 20.0214L28.1229 11.6796L27.7083 15.2175C27.6787 15.4873 27.7566 15.7579 27.9249 15.9706C28.0932 16.1832 28.3385 16.3208 28.6075 16.3534H28.7273C28.9759 16.3547 29.2159 16.2631 29.4007 16.0965C29.5854 15.93 29.7015 15.7004 29.7264 15.4527L30.4107 9.59791C30.4372 9.32787 30.3605 9.0578 30.1959 8.84229C30.1134 8.73751 30.0108 8.65036 29.8941 8.58591C29.7774 8.52146 29.6491 8.481 29.5166 8.46698L23.6723 7.78142C23.4023 7.75059 23.1312 7.82796 22.918 7.99662C22.7497 8.11528 22.622 8.28309 22.5525 8.47718C22.483 8.67127 22.4751 8.88215 22.5297 9.08095C22.5844 9.27974 22.699 9.45678 22.8579 9.58783C23.0168 9.71888 23.2123 9.79756 23.4175 9.81311L26.6843 10.1884L26.4995 10.3435L17.2585 17.8597Z" fill="#1F4E4D"/>
<path d="M30.4206 25.7761H6.10925V27.8152H30.4206V25.7761Z" fill="#3A8071"/>
<path d="M33.3929 1.94153H2.52296C1.86056 1.94153 1.2253 2.20514 0.756917 2.67437C0.288532 3.1436 0.0253906 3.78 0.0253906 4.44359V11.7847H2.15332V4.44359C2.15464 4.34359 2.1952 4.24817 2.26625 4.17793C2.3373 4.10768 2.4331 4.06827 2.53293 4.06828H33.4029C33.5027 4.06827 33.5985 4.10768 33.6696 4.17793C33.7406 4.24817 33.7812 4.34359 33.7825 4.44359V32.2215C33.7825 32.3223 33.7425 32.4191 33.6713 32.4904C33.6001 32.5617 33.5036 32.6018 33.4029 32.6018H2.53293C2.43224 32.6018 2.33571 32.5617 2.26451 32.4904C2.19332 32.4191 2.15332 32.3223 2.15332 32.2215V22.8888H0.0253906V32.2215C0.0253906 32.885 0.288532 33.5214 0.756917 33.9907C1.2253 34.4599 1.86056 34.7235 2.52296 34.7235H33.3929C34.0553 34.7235 34.6905 34.4599 35.1589 33.9907C35.6273 33.5214 35.8904 32.885 35.8904 32.2215V4.44359C35.8904 3.78 35.6273 3.1436 35.1589 2.67437C34.6905 2.20514 34.0553 1.94153 33.3929 1.94153Z" fill="#3A8071"/>
<path d="M2.39282 15.778H0.0151367V21.0723H2.39282V15.778Z" fill="#3A8071"/>
</svg>
