<svg width="37" height="33" viewBox="0 0 37 33" fill="none" xmlns="http://www.w3.org/2000/svg">
<path d="M35 22.3093L35 14.278L27 14.278L27 22.3093L35 22.3093Z" fill="#102436"/>
<path d="M33.4949 2.67572H2.68687C1.97468 2.67703 1.29204 2.95511 0.788447 3.44906C0.284851 3.94301 0.00133495 4.61257 0 5.31112V29.9709C0.00133495 30.6694 0.284851 31.339 0.788447 31.8329C1.29204 32.3269 1.97468 32.605 2.68687 32.6063H8.06061V30.496H2.68687C2.54489 30.496 2.40871 30.4406 2.30831 30.3422C2.20792 30.2437 2.15152 30.1101 2.15152 29.9709V5.32598C2.15284 5.18711 2.20966 5.05431 2.30978 4.95611C2.40989 4.85791 2.54529 4.80217 2.68687 4.80088H33.4949C33.6365 4.80217 33.7719 4.85791 33.872 4.95611C33.9721 5.05431 34.029 5.18711 34.0303 5.32598V29.9857C34.0303 30.125 33.9739 30.2586 33.8735 30.357C33.7731 30.4555 33.6369 30.5108 33.4949 30.5108H18.0909V32.6211H33.4949C34.2071 32.6198 34.8898 32.3417 35.3934 31.8478C35.897 31.3538 36.1805 30.6843 36.1818 29.9857V5.32598C36.1831 4.97883 36.1147 4.63482 35.9803 4.31366C35.8459 3.99249 35.6483 3.70047 35.3987 3.45431C35.1492 3.20814 34.8526 3.01267 34.5259 2.87907C34.1992 2.74547 33.8489 2.67637 33.4949 2.67572Z" fill="#102436"/>
<path d="M13.863 30.4959H10.8276V32.6043H13.863V30.4959Z" fill="#102436"/>
<path fill-rule="evenodd" clip-rule="evenodd" d="M2.68687 0C1.97468 0.00130936 1.29204 0.279393 0.788447 0.773338C0.284851 1.26728 0.00133494 1.93684 0 2.63538V4.88122C0.437521 4.88146 2.1818 4.88115 2.1818 4.88115C2.1818 4.88115 2.15152 3.9888 2.15152 2.65024C2.15284 2.51138 2.20966 2.37857 2.30978 2.28038C2.40989 2.18218 2.54529 2.12644 2.68687 2.12515H33.3131C33.3142 2.12516 33.3152 2.12517 33.3163 2.12519C33.4567 2.12727 33.5908 2.18291 33.6902 2.28038C33.7903 2.37857 33.8471 2.51138 33.8485 2.65024C33.8485 3.9888 33.8182 4.88115 33.8182 4.88115C33.8182 4.88115 35.5625 4.88146 36 4.88122V2.63538C35.9987 1.93684 35.7151 1.26728 35.2115 0.773338C34.7522 0.32278 34.1438 0.0518278 33.5 0.00671021V3.75515e-05L33.3232 3.73361e-05C33.3199 1.86615e-05 33.3165 6.21394e-06 33.3131 0H2.68687Z" fill="#102436"/>
</svg>
