<svg width="206" height="125" viewBox="0 0 206 125" fill="none" xmlns="http://www.w3.org/2000/svg">
<g clip-path="url(#plantDown)">
<path d="M117.865 -9.74712C117.926 -9.63716 117.988 -9.52721 118.078 -9.43916C119.908 -7.10643 121.786 -4.81254 123.56 -2.44289C126.117 0.978951 128.602 4.45902 131.072 7.94659C136.971 16.2002 140.992 25.4663 144.926 34.7572C147.607 41.121 150.302 47.4886 152.417 54.0772C154.118 59.4354 155 64.9641 155.854 70.5077C156.182 72.2362 156.279 74.0028 156.142 75.7621C156.095 76.7048 156.305 77.6396 156.749 78.4678C157.034 78.8764 157.184 79.3632 157.179 79.8626C156.882 79.6929 156.637 79.4472 156.469 79.1507C151.667 73.2936 146.896 67.4078 142.061 61.5751C140.035 59.1215 137.859 56.7981 135.797 54.3758C132.98 51.0652 130.714 47.3991 128.45 43.6854C127.907 42.7642 127.289 41.889 126.602 41.0683C123.835 37.8034 121.505 34.195 119.669 30.331C117.428 25.6627 114.755 21.2189 112.271 16.6812C110.291 13.0748 108.606 9.32578 106.804 5.63052C106.765 5.56015 106.728 5.49417 106.647 5.34903C106.553 5.63761 106.549 5.94616 106.633 6.23522C107.098 11.1768 107.854 16.0531 108.611 20.9406C109.208 24.7791 109.097 28.6733 109.243 32.5335C109.394 37.2925 109.977 42.0171 110.128 46.7761C110.214 49.3577 110.391 51.9345 109.888 54.5111C109.535 56.3345 109.567 58.2061 109.983 60.0068C110.707 63.2135 110.539 66.4631 110.285 69.7036C110.011 73.3571 110.159 77.0246 110.728 80.634C111.352 84.7631 111.386 88.935 111.429 93.1358C111.446 95.4788 111.995 97.7776 111.996 100.124C111.997 101.464 111.976 102.829 111.356 104.089C110.998 104.821 110.814 104.838 110.211 104.286C109.152 103.251 108.2 102.114 107.37 100.89C106.174 99.2486 104.858 97.6744 103.541 96.1523C101.989 94.3609 100.714 92.3484 99.7596 90.1799C98.0182 86.2776 95.734 82.6103 94.3183 78.5775C92.1719 72.613 90.4498 66.5018 89.1648 60.2884C88.6748 57.8233 88.8164 55.2817 88.7895 52.8057C88.7253 49.3737 88.5764 45.9893 88.21 42.5937C87.8647 39.3193 88.0409 36.0127 88.0136 32.6988C87.9762 30.2459 87.5113 27.8362 87.3897 25.3901C87.2438 22.3133 87.3155 19.2273 87.6041 16.155C87.9345 12.3805 87.7494 8.61749 87.7168 4.84413C87.6652 0.168217 87.8968 -4.50464 87.9913 -9.18152C88.0163 -11.23 88.1136 -13.296 88.1604 -15.3683C88.1656 -15.5699 88.1028 -15.7666 87.9821 -15.9273C87.5416 -14.2643 87.0273 -12.6178 86.672 -10.939C85.9181 -7.48514 84.8742 -4.09658 83.5512 -0.808952C82.0832 2.9558 81.2838 6.92959 80.0849 10.7978C78.4744 16.0874 77.4366 21.53 75.9731 26.8413C75.2562 29.4315 74.3178 31.9587 73.1684 34.3955C71.6044 37.7169 70.7491 41.277 69.579 44.7361C68.8888 47.0149 67.8928 49.1946 66.618 51.2161C65.1736 53.4882 64.0509 55.9439 63.282 58.5133C62.9143 59.6447 62.2907 60.6804 61.4593 61.5405C60.0279 62.9987 59.0958 64.8653 58.7978 66.8701C58.6893 67.6098 58.4176 68.3188 58.0021 68.9459C57.6402 69.4724 57.3327 69.4888 56.8986 68.9864C55.6072 67.3706 54.738 65.4606 54.3671 63.4232C53.4036 59.6365 53.1129 55.7041 53.5079 51.8016C53.8331 49.5923 54.3315 47.4094 54.9987 45.2728C55.9101 42.0744 56.2963 38.7657 56.7715 35.5111C57.2525 32.1204 58.1686 28.8152 58.8936 25.4726C59.5085 22.6138 59.8887 19.713 60.4437 16.8414C61.1557 13.1825 62.267 9.62918 63.1651 5.99887C63.8412 3.23865 64.2063 0.415703 64.9566 -2.31676C66.0101 -6.10931 67.6638 -9.68919 68.8866 -13.4205C70.9572 -19.731 73.5425 -25.8559 75.8986 -32.0547C76.2486 -33.0026 76.532 -33.9726 76.7469 -34.9577C75.6275 -33.9199 74.7148 -32.7437 73.6128 -31.7272C71.0067 -29.3128 68.5507 -26.7457 66.1649 -24.0849C60.7645 -18.0632 55.9548 -11.5467 51.8023 -4.62539C48.2988 1.15882 44.9381 7.03053 41.3035 12.7379C39.3326 15.8251 37.1199 18.753 35.288 21.8894C33.874 24.3107 32.807 26.9127 32.1182 29.6193C31.4709 32.19 30.1621 34.5015 28.9126 36.8664C28.8072 35.2551 28.6038 33.6467 28.6172 32.0382C28.6462 29.5886 28.6454 27.1383 28.6585 24.6919C28.7219 21.8428 29.0611 19.003 29.6714 16.2115C30.2736 13.2672 30.8089 10.3084 31.372 7.35715C31.3941 7.19312 31.4357 7.03201 31.4961 6.87727C32.9494 3.64095 33.7767 0.177464 35.1815 -3.07214C35.9945 -4.94963 36.8376 -6.81516 37.5205 -8.7469C38.2807 -11.0136 39.6076 -13.0581 41.376 -14.688C43.0082 -16.2361 44.5522 -17.8734 46.0006 -19.5919C46.9935 -20.7164 48.076 -21.76 49.2374 -22.7124C51.1992 -24.3089 52.6894 -26.3176 54.4066 -28.1412C55.6787 -29.5006 57.0991 -30.7155 58.6411 -31.763C60.2067 -32.8231 61.6238 -34.0859 62.8542 -35.5173C64.5461 -37.4669 66.3413 -39.3259 68.2322 -41.0863C70.3628 -43.0723 71.8988 -45.5227 73.5549 -47.8843C75.6424 -50.8577 76.9366 -54.2418 78.7699 -57.3443C79.5855 -58.7147 80.4624 -59.9864 82.0261 -60.6606C82.4982 -60.8916 83.0328 -60.9601 83.5445 -60.8551C84.0562 -60.7501 84.5156 -60.4777 84.8494 -60.0813C85.7563 -58.7696 86.3952 -57.2922 86.7304 -55.7313C87.1866 -54.0277 87.7854 -52.4675 89.055 -51.1965C89.4874 -50.773 89.8343 -50.2713 90.0774 -49.7177C90.3689 -49.096 90.8591 -48.589 91.4728 -48.2745C93.2702 -47.1607 95.249 -46.4664 97.1525 -45.6028C102.077 -43.3688 106.799 -40.7505 111.575 -38.2368C113.134 -37.4855 114.744 -36.8432 116.395 -36.3143C119.427 -35.2276 122.084 -33.4053 124.985 -32.0716C131.509 -29.0643 137.561 -25.2483 143.733 -21.6449C145.108 -20.7774 146.355 -19.7258 147.438 -18.5195C149.251 -16.6456 151.455 -15.2046 153.544 -13.6534C157.995 -10.3684 162.532 -7.131 166.776 -3.55647C169.114 -1.60302 171.272 0.55265 173.225 2.88567C175.453 5.56187 177.729 8.21054 179.709 11.0833C180.573 12.3328 181.326 13.6855 182.084 15.0176C183.406 17.2316 184.968 19.2944 186.741 21.17C188.558 23.1569 189.705 25.4964 190.802 27.893C191.021 28.3773 190.875 28.5979 190.436 28.7684C189.641 29.0364 188.786 29.0605 187.982 28.8376C185.619 28.3472 183.551 27.2115 181.435 26.1146C176.734 23.6287 172.327 20.6652 167.799 17.8916C162.807 14.8346 157.738 11.8723 152.169 9.88989C143.294 6.69724 134.96 2.50208 127.465 -3.22097C126.061 -4.28207 124.585 -5.24701 123.048 -6.10923C121.221 -7.17729 119.487 -8.39402 117.865 -9.74712Z" fill="#3A8071"/>
</g>
<defs>
<clipPath id="plantDown">
<rect width="206" height="125" fill="white"/>
</clipPath>
</defs>
</svg>
