<svg width="115" height="128" viewBox="0 0 115 128" fill="none" xmlns="http://www.w3.org/2000/svg">
<path d="M79.1 78.2297C79.1 78.1284 79.1 78.0272 79.1282 77.93C79.4858 75.5769 79.8916 73.232 80.1971 70.8749C80.635 67.4729 81.0006 64.0587 81.3542 60.6446C82.2261 52.5446 81.4225 44.473 80.5506 36.4175C79.9439 30.9055 79.3452 25.3853 78.2643 19.9381C77.3723 15.5155 75.8534 11.2954 74.3106 7.07534C73.8715 5.73542 73.2596 4.45953 72.4904 3.2805C72.096 2.6385 71.8808 1.90112 71.8676 1.14614C71.9052 0.748239 71.8212 0.348249 71.6265 0C71.4881 0.235504 71.4146 0.503917 71.4136 0.777592C70.3729 6.76753 69.3643 12.7656 68.2915 18.7515C67.8455 21.2665 67.2468 23.7492 66.7646 26.2561C66.1057 29.6824 65.961 33.1411 65.8365 36.6322C65.818 37.4911 65.7306 38.3471 65.5753 39.1918C64.9332 42.5663 64.7225 46.0098 64.9485 49.4383C65.2056 53.5895 65.081 57.7529 65.1213 61.9082C65.1494 65.213 65.4347 68.5016 65.6195 71.7983C65.6195 71.8631 65.6195 71.9238 65.6195 72.0575C65.4448 71.8919 65.3231 71.6775 65.2699 71.4419C63.6908 67.7969 62.3367 64.083 60.9786 60.3611C59.9139 57.437 58.3427 54.7519 56.9606 51.9898C55.2368 48.5959 53.8225 45.0562 52.0987 41.6623C51.1665 39.8195 50.2986 37.9444 48.9646 36.3365C48.0226 35.1976 47.3261 33.8736 46.9194 32.4485C46.1841 29.9173 44.822 27.706 43.4036 25.5352C41.8128 23.083 40.5064 20.4549 39.5101 17.7025C38.3529 14.5638 36.7738 11.6275 35.1907 8.66698C34.3027 7.01864 33.7964 5.19208 32.8964 3.54779C32.3821 2.60819 31.8436 1.66049 30.9355 1.02059C30.4092 0.647994 30.2766 0.70874 30.0757 1.33244C29.7473 2.47319 29.5319 3.64397 29.4328 4.82758C29.244 6.44758 28.9466 8.06758 28.6292 9.65113C28.2536 11.516 28.1534 13.4267 28.3319 15.3211C28.6372 18.7393 28.4806 22.2061 29.0591 25.5879C29.8787 30.6102 31.0455 35.5686 32.5508 40.427C33.1615 42.3467 34.2344 44.072 35.1666 45.8176C36.4403 48.2476 37.6377 50.6776 38.6904 53.2007C39.7111 55.6307 41.1013 57.8784 42.3549 60.2112C43.271 61.9446 43.8778 63.8157 44.7336 65.5775C45.815 67.7907 47.0489 69.9249 48.4262 71.9643C50.1018 74.4794 51.4197 77.1888 52.846 79.8456C54.606 83.1423 56.5588 86.3256 58.4191 89.5656C59.2227 90.9912 60.0826 92.4006 60.9103 93.8343C60.9913 93.9735 61.0237 94.136 61.0027 94.296C60.0624 93.3037 59.0781 92.352 58.1901 91.3152C56.3476 89.1912 54.3315 87.2268 52.163 85.4427C49.712 83.3812 47.6386 80.9108 45.3322 78.6711C42.1982 75.5972 39.3977 72.1911 36.3559 69.0443C34.8703 67.5109 33.2572 66.1085 31.5342 64.8525C29.1877 63.1394 27.2349 60.9807 25.1054 59.0165C23.7576 57.6908 22.2385 56.5547 20.589 55.6388C18.7273 54.6141 17.0154 53.3342 15.5022 51.8359C14.816 51.1875 13.9911 50.7066 13.0914 50.4305C11.551 49.9709 10.1958 49.029 9.22197 47.7413C8.86366 47.2655 8.40536 46.8755 7.87992 46.5992C7.4299 46.3724 7.21293 46.4818 7.10846 47.0042C6.84418 48.6436 6.98213 50.3233 7.51027 51.8966C8.30414 54.9284 9.61479 57.798 11.3837 60.3773C12.4547 61.7977 13.6342 63.1315 14.9115 64.3665C16.7639 66.2498 18.2988 68.4165 19.8738 70.5104C21.5052 72.6974 23.4017 74.6535 25.1817 76.7109C26.7005 78.4727 28.0747 80.3559 29.5574 82.15C31.4499 84.4342 33.5754 86.4876 35.5844 88.6787C37.1073 90.3473 38.4413 92.1819 40.0043 93.8019C42.1822 96.0456 44.6894 97.9045 46.9595 100.039C50.8008 103.647 54.9234 106.924 58.9173 110.342C59.521 110.869 60.0875 111.437 60.613 112.043C59.4477 111.755 58.3709 111.29 57.2258 111.01C54.5136 110.342 51.8456 109.508 49.1897 108.58C43.1784 106.482 37.3817 103.805 31.8798 100.586C27.259 97.9086 22.7025 95.1141 18.0215 92.5423C15.4861 91.1532 12.8463 89.9706 10.3872 88.4923C8.48896 87.3511 6.75904 85.9469 5.2481 84.3209C3.81767 82.7738 2.03364 81.6681 0.269714 80.5017C0.816171 81.6722 1.29434 82.8791 1.92116 84.0009C2.88147 85.7059 3.82169 87.4232 4.76995 89.1323C5.90724 91.1037 7.22992 92.9604 8.71971 94.6767C10.2627 96.5032 11.7654 98.3662 13.2842 100.213C13.3624 100.319 13.4527 100.416 13.5535 100.501C15.7915 102.198 17.688 104.299 19.8979 106.025C21.1757 107.021 22.4695 107.997 23.679 109.083C25.0701 110.372 26.7639 111.284 28.6011 111.731C30.3135 112.175 31.9998 112.716 33.6518 113.351C34.7637 113.749 35.9059 114.055 37.0672 114.267C39.0239 114.615 40.816 115.437 42.6924 116.04C44.0857 116.493 45.5252 116.787 46.9837 116.915C48.4631 117.043 49.9187 117.372 51.3111 117.891C53.2186 118.593 55.1621 119.19 57.1334 119.681C59.3553 120.236 61.3483 121.35 63.3895 122.354C65.961 123.618 68.1469 125.481 70.5939 126.935C71.6787 127.575 72.7676 128.122 74.0976 127.98C74.5098 127.956 74.9022 127.794 75.2124 127.52C75.5226 127.245 75.7327 126.874 75.8092 126.465C75.9268 125.19 75.7973 123.904 75.4275 122.678C75.0861 121.305 74.8971 119.977 75.2789 118.588C75.4126 118.121 75.4575 117.633 75.4115 117.15C75.3725 116.6 75.5137 116.052 75.8133 115.591C76.6169 114.104 77.7058 112.841 78.6782 111.488C81.1935 107.989 83.4235 104.299 85.7299 100.663C86.5089 99.5241 87.3656 98.4415 88.2934 97.4226C89.9528 95.4705 91.0739 93.1498 92.5485 91.0762C95.8635 86.4066 98.5435 81.3563 101.388 76.4072C101.997 75.2593 102.447 74.033 102.727 72.7622C103.248 70.7372 104.204 68.862 105.041 66.9545C106.828 62.9045 108.693 58.8545 110.228 54.683C111.08 52.3959 111.73 50.0379 112.173 47.636C112.671 44.8861 113.214 42.1361 113.467 39.3457C113.579 38.1307 113.575 36.8873 113.583 35.6561C113.639 33.5855 113.916 31.5269 114.411 29.5164C114.893 27.4104 114.78 25.3206 114.612 23.2105C114.575 22.7853 114.391 22.6881 114.025 22.7407C113.377 22.8653 112.782 23.1844 112.318 23.656C110.887 24.9277 109.907 26.5356 108.878 28.1353C106.611 31.7236 104.731 35.5306 102.694 39.2525C100.448 43.3552 98.1135 47.4214 95.0598 50.9975C90.206 56.7201 86.1075 62.9328 83.1704 69.8867C82.6161 71.1815 81.9758 72.4372 81.2537 73.6451C80.4121 75.1111 79.6919 76.6444 79.1 78.2297Z" fill="#13C081"/>
</svg>
