<svg width="2000" height="821" viewBox="0 0 2000 821" fill="none" xmlns="http://www.w3.org/2000/svg">
<path d="M0 0L97.0727 29.0001L165.245 48.9367H187.479L243.789 58.0001H310.481L375.693 65.2405C375.693 65.2405 520.93 43.4937 638.011 32.6203C755.093 21.7469 881.066 9.06339 881.066 9.06339C881.066 9.06339 912.192 -5.43032 978.884 10.8734C978.884 10.8734 1112.27 14.4936 1310.85 32.6203L1599.86 10.8734L1909.6 47.1268L2000 0V821L1839.94 766.633L1619.12 744.886L1094.49 811.937L675.068 768.443L406.819 797.443L85.2103 764.823L0 821V0Z" fill="#C9E2C9"/>
</svg>
