<svg width="26" height="26" viewBox="0 0 33 33" fill="none" xmlns="http://www.w3.org/2000/svg">
<path d="M27.8574 17.9542H15.0684V4.72485H0.206055V32.7936H15.0684H27.8574V17.9542ZM2.29782 19.9909H13.0226V30.7248H2.29782V19.9909ZM2.29782 6.78907H13.0226V17.9542H2.29782V6.78907ZM25.8253 19.9909V30.734H15.0914V19.9909H25.8253Z" fill="#102436"/>
<path d="M24.9172 16.2798C23.3931 16.2798 21.9031 15.8278 20.6358 14.981C19.3685 14.1342 18.3807 12.9306 17.7974 11.5225C17.2141 10.1143 17.0615 8.56481 17.3589 7.06991C17.6562 5.57502 18.3902 4.20185 19.468 3.12409C20.5457 2.04633 21.9189 1.31238 23.4138 1.01502C24.9087 0.717669 26.4582 0.870285 27.8664 1.45357C29.2745 2.03685 30.4781 3.02459 31.3249 4.29191C32.1717 5.55922 32.6236 7.04917 32.6236 8.57335C32.6212 10.6165 31.8085 12.5752 30.3638 14.0199C28.9191 15.4646 26.9604 16.2773 24.9172 16.2798V16.2798ZM24.9172 2.83941C23.7832 2.83941 22.6745 3.1757 21.7316 3.80575C20.7887 4.43581 20.0537 5.33133 19.6197 6.37907C19.1857 7.42681 19.0722 8.57971 19.2934 9.69199C19.5147 10.8043 20.0608 11.826 20.8627 12.6279C21.6646 13.4298 22.6863 13.9759 23.7986 14.1971C24.9108 14.4184 26.0637 14.3048 27.1115 13.8708C28.1592 13.4368 29.0548 12.7019 29.6848 11.759C30.3149 10.816 30.6512 9.70742 30.6512 8.57335C30.65 7.05299 30.0454 5.59525 28.9704 4.52019C27.8953 3.44513 26.4376 2.84063 24.9172 2.83941Z" fill="#742794"/>
</svg>
