<svg width="26" height="26" viewBox="0 0 33 33" fill="none" xmlns="http://www.w3.org/2000/svg">
<path fill-rule="evenodd" clip-rule="evenodd" d="M0 30.1716H33V33.0002H0V30.1716Z" fill="#102436"/>
<path fill-rule="evenodd" clip-rule="evenodd" d="M30.525 33H23.925L23.925 10.3714H30.525L30.525 33ZM28.6665 30.7062L28.6665 12.6652H25.7835V30.7062H28.6665Z" fill="#102436"/>
<path fill-rule="evenodd" clip-rule="evenodd" d="M21.45 33H14.85L14.85 18.8571H21.45V33ZM19.5915 30.7821V21.075H16.7085V30.7821H19.5915Z" fill="#102436"/>
<path fill-rule="evenodd" clip-rule="evenodd" d="M11.55 33H4.95L4.95 22.6286H11.55L11.55 33ZM9.69145 30.7889V24.8396H6.80855L6.80855 30.7889H9.69145Z" fill="#102436"/>
<path fill-rule="evenodd" clip-rule="evenodd" d="M21.4214 7.34919L29.2443 0L30.525 1.70388L22.1724 9.55069L13.9897 9.82386L5.49717 18.8571L4.125 17.2448L13.1692 7.62468L21.4214 7.34919Z" fill="#13C081"/>
</svg>
