<svg width="26" height="26" viewBox="0 0 34 34" fill="none" xmlns="http://www.w3.org/2000/svg">
<path d="M11.736 32.1696V16.7275H22.048V32.1696" stroke="#742794" stroke-width="2" stroke-linecap="round" stroke-linejoin="round"/>
<path fill-rule="evenodd" clip-rule="evenodd" d="M17.4649 0.465959C17.1208 0.22554 16.6633 0.22554 16.3193 0.465959L0.851197 11.2754C0.583493 11.4625 0.424011 11.7685 0.424011 12.0951V29.0813C0.424011 30.2023 0.920564 31.2526 1.76244 32.009C2.6008 32.7622 3.717 33.1697 4.86136 33.1697H28.9228C30.0671 33.1697 31.1833 32.7622 32.0217 32.009C32.8636 31.2526 33.3601 30.2023 33.3601 29.0813V24.1619H31.3601V29.0813C31.3601 29.5985 31.1324 30.1193 30.685 30.5213C30.2341 30.9264 29.6017 31.1697 28.9228 31.1697H4.86136C4.18244 31.1697 3.55003 30.9264 3.09913 30.5213C2.65175 30.1193 2.42401 29.5985 2.42401 29.0813V12.6162L16.8921 2.50563L31.3601 12.6162V22.1619H33.3601V12.0951C33.3601 11.7685 33.2006 11.4625 32.9329 11.2754L17.4649 0.465959Z" fill="#102436"/>
</svg>
