<svg width="38" height="44" viewBox="0 0 38 44" fill="none" xmlns="http://www.w3.org/2000/svg">
<g clip-path="url(#clip0_197_240)">
<path d="M-0.0736084 0V20.2462H2.40685V2.77933L17.9186 2.78898V0H-0.0736084Z" fill="#742794"/>
<path d="M37.7213 44.0002V23.7544H35.2408V41.221L19.7291 41.2114V44.0002H37.7213Z" fill="#742794"/>
<path d="M11.8403 20.2434V15.7351L7.5957 8.59814H10.1039L12.8792 13.2562L15.6545 8.59814H18.1627L13.9181 15.7351V20.2434H11.8403Z" fill="#742794"/>
<path d="M29.109 8.59814V14.8533C29.109 18.0474 27.0461 20.2434 24.2856 20.2434C21.5253 20.2434 19.4474 18.0474 19.4474 14.8533V8.59814H21.5253V14.8533C21.5253 16.7498 22.7125 17.9144 24.2856 17.9144C25.8588 17.9144 27.0314 16.7498 27.0314 14.8533V8.59814H29.109Z" fill="#742794"/>
<path d="M17.7663 33.1533C17.5336 33.5304 17.2641 33.8714 16.9573 34.1763C16.6506 34.4813 16.3119 34.7406 15.9407 34.954C15.5697 35.1676 15.1689 35.3312 14.7387 35.4448C14.3083 35.5584 13.8556 35.6153 13.3807 35.6153C12.5792 35.6153 11.8445 35.4655 11.1768 35.1662C10.5088 34.8667 9.9337 34.448 9.45136 33.9101C8.96914 33.3722 8.59427 32.7345 8.3271 31.997C8.06005 31.2596 7.92651 30.4527 7.92651 29.5765C7.92651 28.7005 8.06005 27.8935 8.3271 27.1558C8.59427 26.4184 8.96914 25.7807 9.45136 25.2427C9.9337 24.7049 10.5088 24.2862 11.1768 23.9868C11.8445 23.6873 12.5792 23.5376 13.3807 23.5376C13.8604 23.5376 14.3232 23.5974 14.7683 23.7166C15.2136 23.8358 15.6265 24.0075 16.0075 24.2321C16.3884 24.4568 16.7348 24.7312 17.0464 25.0556C17.3582 25.38 17.6203 25.7447 17.8331 26.1495L16.0517 27.4127C15.7506 26.9216 15.3691 26.5383 14.9076 26.2631C14.4458 25.9879 13.9188 25.8502 13.3267 25.8502C12.8499 25.8502 12.4083 25.9408 12.0019 26.1214C11.5952 26.3024 11.244 26.5544 10.9479 26.8782C10.6518 27.202 10.4196 27.5922 10.2515 28.0481C10.0833 28.5043 9.99934 29.0074 9.99934 29.5578C9.99934 30.1247 10.0859 30.6374 10.2591 31.096C10.4322 31.5548 10.668 31.9448 10.9667 32.2658C11.2652 32.587 11.6166 32.8339 12.0206 33.0065C12.4246 33.1794 12.8599 33.2655 13.3267 33.2655C13.9188 33.2655 14.4458 33.1321 14.9076 32.865C15.3691 32.5977 15.7581 32.2134 16.0745 31.7114L17.7663 33.1533Z" fill="#742794"/>
<path d="M22.513 31.24H26.0452L24.2792 26.948L22.513 31.24ZM27.0099 33.5689H21.5485L20.7915 35.399H18.5059L23.3144 23.7539H25.2437L30.0524 35.399H27.7669L27.0099 33.5689Z" fill="#742794"/>
</g>
<defs>
<clipPath id="clip0_197_240">
<rect width="37.6471" height="44" fill="white"/>
</clipPath>
</defs>
</svg>
