<svg width="26" height="26" viewBox="0 0 33 33" fill="none" xmlns="http://www.w3.org/2000/svg">
<path d="M21.2014 7.09103H27.0365C27.2759 7.07433 27.5002 6.96727 27.6639 6.79147C27.8277 6.61566 27.9187 6.3842 27.9187 6.14378C27.9187 5.90337 27.8277 5.6719 27.6639 5.4961C27.5002 5.32029 27.2759 5.21323 27.0365 5.19653H21.2014C20.9619 5.21323 20.7377 5.32029 20.574 5.4961C20.4102 5.6719 20.3192 5.90337 20.3192 6.14378C20.3192 6.3842 20.4102 6.61566 20.574 6.79147C20.7377 6.96727 20.9619 7.07433 21.2014 7.09103Z" fill="#3A8071"/>
<path d="M16.1999 12.1004H27.0365C27.276 12.0837 27.5002 11.9766 27.664 11.8008C27.8277 11.625 27.9187 11.3936 27.9187 11.1532C27.9187 10.9127 27.8277 10.6813 27.664 10.5055C27.5002 10.3297 27.276 10.2226 27.0365 10.2059H16.1999C16.0702 10.1969 15.94 10.2146 15.8174 10.2582C15.6948 10.3017 15.5825 10.37 15.4874 10.4588C15.3923 10.5477 15.3165 10.6551 15.2646 10.7746C15.2128 10.8941 15.186 11.0229 15.186 11.1532C15.186 11.2834 15.2128 11.4123 15.2646 11.5317C15.3165 11.6512 15.3923 11.7587 15.4874 11.8475C15.5825 11.9364 15.6948 12.0047 15.8174 12.0482C15.94 12.0917 16.0702 12.1095 16.1999 12.1004V12.1004Z" fill="#3A8071"/>
<path d="M6.61366 12.1003H11.6152C11.9796 12.1003 12.3291 11.9554 12.5867 11.6973C12.8444 11.4392 12.9892 11.0892 12.9892 10.7242V6.54989C12.9877 6.18887 12.8446 5.8429 12.5907 5.58658V5.58658C12.3348 5.33235 11.9894 5.18902 11.6289 5.1875H6.61366C6.24924 5.1875 5.89975 5.33248 5.64207 5.59056C5.38438 5.84863 5.23962 6.19867 5.23962 6.56365V10.7379C5.24324 11.1005 5.3896 11.447 5.64689 11.7021C5.90418 11.9573 6.25161 12.1004 6.61366 12.1003ZM7.15411 7.09117H11.0976V10.2058H7.15411V7.09117Z" fill="#3A8071"/>
<path d="M27.0595 22.7476H22.5389L21.1649 20.6742C21.0799 20.546 20.965 20.4406 20.8301 20.3671C20.6952 20.2936 20.5444 20.2541 20.3909 20.2522C20.239 20.2474 20.0883 20.2805 19.9523 20.3486C19.8164 20.4166 19.6995 20.5175 19.6122 20.6421L16.3145 25.2292L12.0367 17.3944C11.9493 17.2317 11.8163 17.0983 11.654 17.0106C11.4917 16.9229 11.3073 16.8847 11.1236 16.9008C10.9399 16.9169 10.7649 16.9866 10.6203 17.1012C10.4757 17.2158 10.3678 17.3704 10.31 17.5457L8.8581 21.899H6.20621C6.02594 21.8818 5.84449 21.9157 5.68254 21.9968C5.52058 22.0779 5.38463 22.2029 5.29018 22.3577C5.20049 22.5065 5.15308 22.677 5.15308 22.8508C5.15308 23.0246 5.20049 23.1951 5.29018 23.3439C5.37982 23.4946 5.50955 23.6173 5.66486 23.6983C5.82017 23.7793 5.99492 23.8154 6.16956 23.8026H9.5268C9.72846 23.807 9.92623 23.7466 10.0911 23.6302C10.256 23.5138 10.3792 23.3475 10.4428 23.1558L11.423 20.2201L15.3848 27.4723C15.459 27.6144 15.5692 27.7344 15.7042 27.8205C15.8392 27.9066 15.9943 27.9558 16.1542 27.9632H16.2138C16.3653 27.9667 16.5154 27.9325 16.6505 27.8636C16.7855 27.7948 16.9015 27.6934 16.9878 27.5687L20.3542 22.8577L21.2702 24.2338C21.3561 24.3632 21.4725 24.4694 21.6091 24.543C21.7457 24.6166 21.8983 24.6554 22.0534 24.6558H27.0595C27.2399 24.6735 27.4215 24.6399 27.5836 24.5587C27.7456 24.4776 27.8815 24.3522 27.9756 24.1971C28.0665 24.0485 28.1147 23.8775 28.1146 23.7031C28.1146 23.5288 28.0664 23.3578 27.9754 23.2092C27.8843 23.0606 27.754 22.9401 27.5989 22.861C27.4437 22.782 27.2697 22.7475 27.0962 22.7613L27.0595 22.7476Z" fill="#3A8071"/>
<path d="M31.0945 17.8116V29.1052C31.0933 29.6287 30.8847 30.1304 30.5147 30.5002C30.1446 30.87 29.6432 31.0777 29.1204 31.0777H4.11294C3.59019 31.0777 3.08878 30.87 2.71871 30.5002C2.34864 30.1304 2.14012 29.6287 2.13891 29.1052V4.05474C2.14012 3.53076 2.34848 3.02858 2.71842 2.65807C3.08837 2.28756 3.58977 2.07889 4.11294 2.07768H29.1388C29.6619 2.07889 30.1633 2.28756 30.5333 2.65807C30.9032 3.02858 31.1116 3.53076 31.1128 4.05474V7.09144H32.9998V3.21988C33.001 2.82135 32.9235 2.42653 32.7718 2.05811C32.6201 1.68969 32.3971 1.35494 32.1158 1.07315C31.8344 0.791347 31.5002 0.568057 31.1323 0.416108C30.7645 0.264159 30.3703 0.186547 29.9723 0.187758H3.27936C2.8814 0.187155 2.48723 0.265148 2.11939 0.417256C1.75156 0.569364 1.41727 0.792606 1.13566 1.07422C0.854046 1.35584 0.630635 1.6903 0.478204 2.05847C0.325774 2.42664 0.247314 2.82131 0.247314 3.21988V29.9401C0.248528 30.7446 0.568512 31.5159 1.137 32.0844C1.70549 32.6529 2.476 32.9722 3.27936 32.9722H29.954C30.3516 32.9722 30.7453 32.8937 31.1126 32.7414C31.4799 32.589 31.8136 32.3656 32.0948 32.0841C32.3759 31.8025 32.5989 31.4683 32.751 31.1004C32.9032 30.7325 32.9815 30.3382 32.9815 29.9401V17.8116H31.0945Z" fill="#102436"/>
<path d="M32.9449 9.27979H31.0945V13.7431H32.9449V9.27979Z" fill="#102436"/>
</svg>
