<svg width="105" height="40" viewBox="0 0 105 40" fill="none" xmlns="http://www.w3.org/2000/svg">
<g clip-path="url(#clip0_308_351)">
<path d="M-0.0734863 0V18.4057H2.40697V2.52666L17.9187 2.53544V0H-0.0734863Z" fill="#742794"/>
<path d="M37.7214 40V21.5947H35.2409V37.4734L19.7292 37.4647V40H37.7214Z" fill="#742794"/>
<path d="M11.8403 18.4032V14.3047L7.5957 7.81659H10.1039L12.8792 12.0512L15.6545 7.81659H18.1627L13.9181 14.3047V18.4032H11.8403Z" fill="#742794"/>
<path d="M29.1091 7.81659V13.5031C29.1091 16.4068 27.0463 18.4032 24.2857 18.4032C21.5254 18.4032 19.4475 16.4068 19.4475 13.5031V7.81659H21.5254V13.5031C21.5254 15.2272 22.7126 16.2859 24.2857 16.2859C25.8589 16.2859 27.0315 15.2272 27.0315 13.5031V7.81659H29.1091Z" fill="#742794"/>
<path d="M17.7663 30.1394C17.5336 30.4822 17.2641 30.7922 16.9573 31.0694C16.6506 31.3467 16.3119 31.5825 15.9407 31.7765C15.5697 31.9706 15.1689 32.1193 14.7387 32.2226C14.3083 32.3259 13.8556 32.3777 13.3807 32.3777C12.5792 32.3777 11.8445 32.2414 11.1768 31.9693C10.5088 31.6971 9.9337 31.3165 9.45136 30.8274C8.96914 30.3385 8.59427 29.7587 8.3271 29.0882C8.06005 28.4179 7.92651 27.6844 7.92651 26.8878C7.92651 26.0914 8.06005 25.3578 8.3271 24.6872C8.59427 24.0168 8.96914 23.4371 9.45136 22.948C9.9337 22.4591 10.5088 22.0785 11.1768 21.8062C11.8445 21.534 12.5792 21.3979 13.3807 21.3979C13.8604 21.3979 14.3232 21.4522 14.7683 21.5606C15.2136 21.6689 15.6265 21.8251 16.0075 22.0293C16.3884 22.2335 16.7348 22.4829 17.0464 22.7779C17.3582 23.0728 17.6203 23.4044 17.8331 23.7724L16.0517 24.9207C15.7506 24.4742 15.3691 24.1258 14.9076 23.8757C14.4458 23.6254 13.9188 23.5002 13.3267 23.5002C12.8499 23.5002 12.4083 23.5826 12.0019 23.7468C11.5952 23.9113 11.244 24.1405 10.9479 24.4348C10.6518 24.7292 10.4196 25.0839 10.2515 25.4984C10.0833 25.9131 9.99934 26.3705 9.99934 26.8708C9.99934 27.3861 10.0859 27.8522 10.2591 28.2692C10.4322 28.6862 10.668 29.0408 10.9667 29.3326C11.2652 29.6246 11.6166 29.8491 12.0206 30.006C12.4246 30.1632 12.8599 30.2414 13.3267 30.2414C13.9188 30.2414 14.4458 30.1201 14.9076 29.8773C15.3691 29.6344 15.7581 29.2849 16.0745 28.8286L17.7663 30.1394Z" fill="#742794"/>
<path d="M22.513 28.3999H26.0452L24.2792 24.4982L22.513 28.3999ZM27.0099 30.5171H21.5485L20.7915 32.1809H18.5059L23.3144 21.5944H25.2437L30.0524 32.1809H27.7669L27.0099 30.5171Z" fill="#742794"/>
</g>
<path d="M53.0094 12.2942H55.2101V24.9216H53.0094V12.2942ZM57.728 15.3969H59.9288V16.9483H60.0551C60.2836 16.4552 60.6444 16.0343 61.1374 15.6856C61.6425 15.3368 62.2559 15.1624 62.9774 15.1624C64.2041 15.1624 65.088 15.5593 65.6292 16.353C66.1704 17.1467 66.441 18.0667 66.441 19.113V24.9216H64.2582V19.4557C64.2582 18.674 64.0658 18.0727 63.681 17.6518C63.3081 17.2189 62.791 17.0024 62.1296 17.0024C61.42 17.0024 60.8729 17.2309 60.488 17.6879C60.1152 18.1449 59.9288 18.7342 59.9288 19.4557V24.9216H57.728V15.3969ZM67.9286 15.3969H70.0212L72.4745 22.6848H72.5827L75.018 15.3969H77.1106L73.8275 24.9216H71.1937L67.9286 15.3969ZM82.5768 25.0659C81.5906 25.0659 80.7548 24.8314 80.0693 24.3624C79.3958 23.8934 78.8907 23.2861 78.554 22.5405C78.2293 21.7828 78.067 20.9771 78.067 20.1232C78.067 19.2573 78.2293 18.4516 78.554 17.7059C78.8907 16.9483 79.3958 16.335 80.0693 15.8659C80.7548 15.3969 81.5966 15.1624 82.5948 15.1624C83.9177 15.1624 84.9639 15.5893 85.7336 16.4432C86.5153 17.2971 86.9062 18.5297 86.9062 20.1412V20.7365H80.1956V20.8808C80.1956 21.3018 80.2918 21.6986 80.4842 22.0714C80.6887 22.4442 80.9653 22.7449 81.314 22.9734C81.6748 23.1899 82.0837 23.2981 82.5407 23.2981C83.0578 23.2981 83.4968 23.1778 83.8575 22.9373C84.2183 22.6848 84.4889 22.348 84.6693 21.9271H86.816C86.5634 22.8411 86.0764 23.5927 85.3548 24.182C84.6332 24.7713 83.7072 25.0659 82.5768 25.0659ZM84.7956 19.2934C84.7715 18.4275 84.5551 17.7961 84.1462 17.3993C83.7493 16.9904 83.2262 16.7859 82.5768 16.7859C81.8792 16.7859 81.32 17.0144 80.8991 17.4714C80.4902 17.9164 80.2738 18.5237 80.2497 19.2934H84.7956ZM92.2841 25.0659C91.4904 25.0659 90.8049 24.9156 90.2276 24.615C89.6504 24.3143 89.2114 23.9235 88.9108 23.4424C88.6101 22.9493 88.4598 22.4322 88.4598 21.891V21.7828H90.6065V21.891C90.6065 22.2639 90.7568 22.6006 91.0574 22.9012C91.3581 23.2019 91.785 23.3522 92.3382 23.3522C92.7952 23.3522 93.168 23.244 93.4567 23.0275C93.7453 22.811 93.8896 22.5104 93.8896 22.1256C93.8896 21.7888 93.7633 21.5242 93.5108 21.3318C93.2703 21.1394 92.9696 21.0191 92.6088 20.971L91.4723 20.7546C90.7387 20.6343 90.0893 20.3637 89.5241 19.9428C88.9709 19.5099 88.6943 18.8665 88.6943 18.0126C88.6943 17.1227 89.019 16.4252 89.6684 15.9201C90.3178 15.415 91.1537 15.1624 92.1759 15.1624C92.9215 15.1624 93.5649 15.3007 94.1061 15.5773C94.6593 15.8539 95.0742 16.2147 95.3508 16.6597C95.6394 17.1046 95.7837 17.5857 95.7837 18.1028V18.175H93.6371V18.1208C93.6371 17.7961 93.5108 17.4895 93.2582 17.2008C93.0177 16.9122 92.6329 16.7679 92.1037 16.7679C91.6587 16.7679 91.304 16.8822 91.0394 17.1107C90.7748 17.3271 90.6425 17.6157 90.6425 17.9765C90.6425 18.2892 90.7628 18.5418 91.0033 18.7342C91.2559 18.9266 91.5686 19.0589 91.9414 19.131L93.1861 19.3475C93.9678 19.5039 94.6232 19.7985 95.1523 20.2314C95.6815 20.6644 95.9461 21.2837 95.9461 22.0895C95.9461 22.6788 95.7837 23.2019 95.459 23.6589C95.1463 24.1039 94.7074 24.4526 94.1421 24.7052C93.5889 24.9457 92.9696 25.0659 92.2841 25.0659ZM100.999 17.1107V21.7828C100.999 22.2157 101.017 22.5344 101.053 22.7389C101.101 22.9433 101.222 23.1057 101.414 23.2259C101.606 23.3462 101.913 23.4063 102.334 23.4063C102.551 23.4063 102.827 23.3763 103.164 23.3161V24.8495C103.092 24.8735 102.887 24.9036 102.551 24.9397C102.214 24.9757 101.883 24.9938 101.558 24.9938C100.729 24.9938 100.115 24.8735 99.7184 24.633C99.3215 24.3925 99.069 24.0858 98.9607 23.713C98.8645 23.3402 98.8164 22.8531 98.8164 22.2518V17.1107H97.1568V15.3969H98.8164V12.2942H100.999V15.3969H103.164V17.1107H100.999Z" fill="#742794"/>
<defs>
<clipPath id="clip0_308_351">
<rect width="37.6471" height="40" fill="white"/>
</clipPath>
</defs>
</svg>
